<svg width="31" height="28" viewBox="0 0 31 28" fill="none" xmlns="http://www.w3.org/2000/svg">
<g clip-path="url(#clip0_8_122)">
<path d="M10.5017 20.1888C10.1633 20.2968 9.97402 20.6668 10.0786 21.0152L11.3386 25.2037C11.4239 25.4871 11.6774 25.6691 11.9513 25.6691C12.0142 25.6691 12.078 25.6595 12.1412 25.6394C12.4796 25.5314 12.6689 25.1615 12.5643 24.813L11.3043 20.6245C11.1994 20.276 10.8401 20.0808 10.5017 20.1888Z" fill="#424B5A"/>
<path d="M30.115 27.1129L27.4615 18.2933C27.3784 18.0168 27.1298 17.8282 26.8488 17.8282H22.7939L20.2709 9.4426C20.1878 9.16614 19.9392 8.97754 19.6582 8.97754H10.6023C10.321 8.97754 10.0727 9.16614 9.98964 9.4426L7.46672 17.8282H3.30429C3.02297 17.8282 2.77469 18.0168 2.69161 18.2933L0.0288213 27.1439C-0.0314851 27.3444 0.00444211 27.5624 0.125376 27.7312C0.246309 27.9 0.438135 27.9997 0.64183 27.9997H15.0236C15.0413 27.9997 15.0583 27.9984 15.0756 27.9971C15.0939 27.9987 15.1122 27.9997 15.1304 27.9997H29.5126C29.867 27.9997 30.1541 27.7041 30.1541 27.3391C30.1541 27.2595 30.1403 27.1832 30.1153 27.1125L30.115 27.1129ZM11.0752 10.2987H19.1854L21.4508 17.8282H8.81014L11.0755 10.2987H11.0752ZM15.0766 25.2857L13.2305 19.1494H16.9226L15.0766 25.2857ZM1.51178 26.6789L3.77712 19.1494H11.8874L14.1527 26.6789H1.51178ZM16.0007 26.6789L18.2661 19.1494H26.3763L28.6416 26.6789H16.001H16.0007Z" fill="#424B5A"/>
<path d="M24.9902 20.1888C24.6518 20.2968 24.4625 20.6668 24.5671 21.0152L25.8271 25.2037C25.9125 25.4871 26.1659 25.6691 26.4398 25.6691C26.5027 25.6691 26.5665 25.6595 26.6297 25.6394C26.9681 25.5314 27.1574 25.1615 27.0528 24.813L25.7928 20.6245C25.6879 20.276 25.3286 20.0808 24.9902 20.1888Z" fill="#424B5A"/>
<path d="M18.6366 16.353C18.7219 16.6364 18.9753 16.8184 19.2493 16.8184C19.3121 16.8184 19.376 16.8088 19.4392 16.7887C19.7776 16.6807 19.9672 16.3107 19.8623 15.9623L18.6023 11.7738C18.4974 11.4253 18.1381 11.2301 17.7997 11.3381C17.4612 11.4461 17.2717 11.8161 17.3766 12.1645L18.6366 16.353Z" fill="#424B5A"/>
<path d="M15.0227 6.55905C15.3771 6.55905 15.6642 6.26344 15.6642 5.89846V0.660596C15.6642 0.295616 15.3771 0 15.0227 0C14.6682 0 14.3811 0.295616 14.3811 0.660596V5.89846C14.3811 6.26344 14.6682 6.55905 15.0227 6.55905Z" fill="#424B5A"/>
<path d="M9.28456 6.7291C9.40999 6.85825 9.5739 6.92266 9.73814 6.92266C9.90238 6.92266 10.0666 6.85825 10.1917 6.7291C10.4423 6.47114 10.4423 6.05298 10.1917 5.79502L7.46029 2.98253C7.20977 2.72457 6.80366 2.72457 6.55313 2.98253C6.3026 3.2405 6.3026 3.65865 6.55313 3.91662L9.28456 6.7291Z" fill="#424B5A"/>
<path d="M20.3075 6.92266C20.4717 6.92266 20.636 6.85825 20.7611 6.7291L23.4925 3.91662C23.743 3.65865 23.743 3.2405 23.4925 2.98253C23.242 2.72457 22.8359 2.72457 22.5853 2.98253L19.8539 5.79502C19.6034 6.05298 19.6034 6.47114 19.8539 6.7291C19.9793 6.85825 20.1433 6.92266 20.3075 6.92266Z" fill="#424B5A"/>
</g>
<defs>
<clipPath id="clip0_8_122">
<rect width="30.1538" height="28" fill="white"/>
</clipPath>
</defs>
</svg>
