<svg width="33" height="24" viewBox="0 0 33 24" fill="none" xmlns="http://www.w3.org/2000/svg">
<g clip-path="url(#clip0_6_30)">
<path d="M6.8772 6.75943V2.70078C6.8772 1.51227 7.85561 0.547913 9.06371 0.547913H30.257C31.464 0.547913 32.4435 1.51127 32.4435 2.70078V14.5231C32.4435 15.7116 31.4651 16.676 30.257 16.676H26.1227" stroke="#424B5A" stroke-width="1.5" stroke-linecap="round" stroke-linejoin="round"/>
<path d="M6.8772 3.76776H32.4435" stroke="#424B5A" stroke-width="1.5" stroke-linecap="round" stroke-linejoin="round"/>
<path d="M6.8772 6.75946H32.4435" stroke="#424B5A" stroke-width="1.5" stroke-linecap="round" stroke-linejoin="round"/>
<path d="M26.1228 13.1543H28.7565" stroke="#424B5A" stroke-width="1.5" stroke-linecap="round" stroke-linejoin="round"/>
<path d="M0.556519 17.3215V20.7645C0.556519 21.9431 1.52684 22.8985 2.7238 22.8985H22.4348" stroke="#424B5A" stroke-width="1.5" stroke-linecap="round" stroke-linejoin="round"/>
<path d="M0.556519 17.2737V8.92429C0.556519 7.73578 1.53493 6.77142 2.74303 6.77142H23.9363C25.1434 6.77142 26.1228 7.73478 26.1228 8.92429V20.7466C26.1228 21.9351 25.1444 22.8995 23.9363 22.8995H4.94674" stroke="#424B5A" stroke-width="1.5" stroke-linecap="round" stroke-linejoin="round"/>
<path d="M9.75476 12.3802H4.76758V17.2906H9.75476V12.3802Z" stroke="#424B5A" stroke-width="1.5" stroke-linecap="round" stroke-linejoin="round"/>
<path d="M4.76758 20.11H14.1652" stroke="#424B5A" stroke-width="1.5" stroke-linecap="round" stroke-linejoin="round"/>
<path d="M18.3824 20.11H16.9851" stroke="#424B5A" stroke-width="1.5" stroke-linecap="round" stroke-linejoin="round"/>
<path d="M22.5997 20.11H21.2024" stroke="#424B5A" stroke-width="1.5" stroke-linecap="round" stroke-linejoin="round"/>
</g>
<defs>
<clipPath id="clip0_6_30">
<rect width="33" height="23.4474" fill="white"/>
</clipPath>
</defs>
</svg>
