<svg width="32" height="28" viewBox="0 0 32 28" fill="none" xmlns="http://www.w3.org/2000/svg">
<g clip-path="url(#clip0_8_98)">
<path d="M31.7208 13.2469L27.9583 10.014V3.22531C28.3359 3.15871 28.6229 2.83336 28.6229 2.43885C28.6229 1.99567 28.2609 1.63958 27.8161 1.63958H22.0548C21.6075 1.63958 21.248 1.99823 21.248 2.43885C21.248 2.83336 21.5351 3.15871 21.9126 3.22531V4.81872L16.5289 0.194754C16.2263 -0.0665455 15.7738 -0.0665455 15.4712 0.194754L0.279321 13.2469C-0.0568401 13.5364 -0.0930422 14.041 0.19916 14.3766C0.491362 14.7097 1.00078 14.7455 1.33952 14.4561L4.04433 12.1325V26.399H2.72296C2.2756 26.399 1.91617 26.7576 1.91617 27.1982C1.91617 27.6389 2.27819 27.9975 2.72296 27.9975H29.2823C29.7297 27.9975 30.0891 27.6389 30.0891 27.1982C30.0891 26.7576 29.7271 26.399 29.2823 26.399H27.9609V12.1325L30.6657 14.4561C30.8183 14.5867 31.0071 14.6507 31.1958 14.6507C31.4208 14.6507 31.6458 14.5585 31.8061 14.3741C32.0983 14.041 32.0621 13.5338 31.7259 13.2443L31.7208 13.2469ZM26.3422 26.3733H5.65791V10.7466L16.0013 1.8599L26.3422 10.7441V26.3708V26.3733ZM26.3422 8.62549L23.5288 6.2072V3.23812H26.3422V8.62549Z" fill="#424B5A"/>
<path d="M19.1534 15.3352L18.8636 16.3239H13.3409L13.6307 15.3352H19.1534ZM16.5625 22L13.4432 18.1818L13.4261 17.4659H14.9773C15.3807 17.4659 15.7244 17.4091 16.0085 17.2955C16.2926 17.179 16.5099 17.0057 16.6605 16.7756C16.8111 16.5426 16.8864 16.25 16.8864 15.8977C16.8864 15.3778 16.7301 14.9702 16.4176 14.6747C16.1051 14.3764 15.625 14.2273 14.9773 14.2273H13.3409L13.6307 13.2727H14.9773C15.6705 13.2727 16.2386 13.3878 16.6818 13.6179C17.1278 13.8452 17.4574 14.1577 17.6705 14.5554C17.8864 14.9503 17.9943 15.3977 17.9943 15.8977C17.9943 16.3494 17.8949 16.7656 17.696 17.1463C17.5 17.5241 17.1847 17.8281 16.75 18.0582C16.3182 18.2884 15.7472 18.4034 15.0369 18.4034H15.0114L17.892 21.9318V22H16.5625ZM19.1534 13.2727L18.8636 14.2614L14.517 14.2273L14.8068 13.2727H19.1534Z" fill="#424B5A"/>
</g>
<defs>
<clipPath id="clip0_8_98">
<rect width="32" height="28" fill="white"/>
</clipPath>
</defs>
</svg>
