<svg width="25" height="27" viewBox="0 0 25 27" fill="none" xmlns="http://www.w3.org/2000/svg">
<g clip-path="url(#clip0_8_104)">
<path d="M24.9366 11.764C24.7916 11.1592 24.4222 10.6454 23.8943 10.3203L23.5477 10.1065C23.1829 9.88143 22.7637 9.7632 22.3355 9.7632C21.5221 9.7632 20.7812 10.1793 20.3575 10.8705L16.2271 17.5278C16.1365 17.6802 16.0798 17.8484 16.0595 18.0371L15.783 21.0202H9.2215C8.82953 21.0202 8.51459 21.3385 8.51459 21.7296C8.51459 22.1207 8.83179 22.439 9.2215 22.439H16.4333C16.8253 22.439 17.1402 22.1207 17.1402 21.7296C17.1402 21.7251 17.1402 21.7228 17.1402 21.7182L17.4642 18.2213L19.927 14.2537L21.8257 15.4656L19.4331 19.4127C19.134 19.631 19.0525 20.0493 19.2541 20.3677C19.4648 20.6996 19.8999 20.7974 20.2307 20.5859C20.242 20.5791 20.2533 20.5677 20.2646 20.5609V25.5812H1.41608V1.42105H20.2624V8.13297C20.2624 8.52632 20.5796 8.84236 20.9693 8.84236C21.359 8.84236 21.6762 8.52404 21.6762 8.13297V0.709389C21.6762 0.316042 21.359 0 20.9693 0H0.706906C0.317201 0 0 0.318316 0 0.709389V26.2883C0 26.6817 0.317201 26.9977 0.706906 26.9977H20.9693C21.3612 26.9977 21.6762 26.6794 21.6762 26.2883V18.435L24.6533 13.5261C24.9773 12.9964 25.077 12.3711 24.9343 11.7618L24.9366 11.764ZM23.448 12.7872L22.5598 14.2515L20.6747 13.0487L21.5629 11.6185C21.7283 11.3457 22.0183 11.1843 22.3378 11.1843C22.5032 11.1843 22.6686 11.2297 22.809 11.3184L23.1534 11.5321C23.3596 11.6595 23.5046 11.8618 23.5613 12.096C23.6179 12.3347 23.5794 12.5803 23.4502 12.7895L23.448 12.7872ZM16.3653 14.0241C16.3653 13.6307 16.0481 13.3147 15.6584 13.3147H4.6402C4.24823 13.3147 3.9333 13.633 3.9333 14.0241C3.9333 14.4152 4.2505 14.7335 4.6402 14.7335H15.6562C16.0481 14.7335 16.3631 14.4152 16.3631 14.0241H16.3653ZM4.6402 17.1663C4.24823 17.1663 3.9333 17.4846 3.9333 17.8757C3.9333 18.2668 4.2505 18.5851 4.6402 18.5851H13.6736C14.0656 18.5851 14.3806 18.2668 14.3806 17.8757C14.3806 17.4846 14.0633 17.1663 13.6736 17.1663H4.6402ZM18.0646 10.1725C18.0646 9.77912 17.7474 9.46307 17.3577 9.46307H4.6402C4.24823 9.46307 3.9333 9.78139 3.9333 10.1725C3.9333 10.5635 4.2505 10.8819 4.6402 10.8819H17.3554C17.7474 10.8819 18.0624 10.5635 18.0624 10.1725H18.0646Z" fill="#424B5A"/>
</g>
<defs>
<clipPath id="clip0_8_104">
<rect width="25" height="27" fill="white"/>
</clipPath>
</defs>
</svg>
