<svg width="38" height="31" viewBox="0 0 38 31" fill="none" xmlns="http://www.w3.org/2000/svg">
<g clip-path="url(#clip0_4_264)">
<path d="M18.5298 10.1755C21.1749 10.1755 23.3192 8.01854 23.3192 5.35782C23.3192 2.6971 21.1749 0.540161 18.5298 0.540161C15.8846 0.540161 13.7404 2.6971 13.7404 5.35782C13.7404 8.01854 15.8846 10.1755 18.5298 10.1755Z" stroke="#424B5A" stroke-width="1.5" stroke-linecap="round" stroke-linejoin="round"/>
<path d="M21.8234 5.02699L21.5996 5.81641H17.4096L17.6334 5.02699H21.8234ZM19.7843 10L17.4959 7.22266L17.4895 6.59943H18.6241C18.9075 6.59943 19.1472 6.55575 19.3432 6.46839C19.5393 6.38104 19.6884 6.25426 19.7907 6.08807C19.893 5.91974 19.9441 5.7152 19.9441 5.47443C19.9441 5.11648 19.8376 4.83203 19.6245 4.62109C19.4114 4.41016 19.078 4.30469 18.6241 4.30469H17.4096L17.643 3.45455H18.6241C19.1525 3.45455 19.5883 3.53871 19.9313 3.70703C20.2743 3.87535 20.53 4.10866 20.6984 4.40696C20.8667 4.70526 20.9508 5.04936 20.9508 5.43928C20.9508 5.78658 20.8816 6.10085 20.7431 6.3821C20.6046 6.66335 20.3841 6.8924 20.0815 7.06925C19.779 7.24609 19.3816 7.34943 18.8894 7.37926L18.8606 7.38565L20.9508 9.94567V10H19.7843ZM21.8265 3.45455L21.5996 4.25036L18.2502 4.23118L18.4771 3.45455H21.8265Z" fill="#424B5A"/>
<path d="M14.3663 10.7717C15.6464 10.3877 17.0545 10.1746 18.5318 10.1746C20.0091 10.1746 21.4152 10.3867 22.6943 10.7708" stroke="#424B5A" stroke-width="1.5" stroke-linecap="round" stroke-linejoin="round"/>
<path d="M31.9498 14.5207C34.9065 14.7348 36.9882 13.6161 36.9882 11.5938C36.9882 9.57143 34.2601 9.30722 33.7484 10.589C33.391 11.4838 34.1361 12.0996 34.7512 12.0132" stroke="#424B5A" stroke-width="1.5" stroke-linecap="round" stroke-linejoin="round"/>
<path d="M14.3662 7.73279C13.3068 7.9528 12.2982 8.25728 11.3559 8.63641C8.85623 6.12788 5.35278 7.03445 5.35278 7.03445L7.50777 10.9023C5.83905 12.3029 4.69857 14.0296 4.30605 15.9302L1.25176 17.2286C0.655159 17.482 0.376875 18.1765 0.632701 18.7756L2.27604 22.6268C2.52991 23.222 3.21439 23.498 3.80611 23.2456L5.96013 22.3262C6.95999 23.5913 8.33286 24.6874 9.97327 25.54V29.2851C9.97327 29.9343 10.4966 30.4608 11.1421 30.4608H14.3946C15.04 30.4608 15.5634 29.9343 15.5634 29.2851V27.2863C16.4636 27.413 17.3951 27.4808 18.3481 27.4808C19.9729 27.4808 21.5333 27.2863 22.9872 26.9298V29.2851C22.9872 29.9343 23.5106 30.4608 24.156 30.4608H27.4085C28.0539 30.4608 28.5773 29.9343 28.5773 29.2851V24.3898C31.032 22.5787 32.5416 20.1173 32.5416 17.4054C32.5416 12.907 28.3888 9.09804 22.6562 7.80253" stroke="#424B5A" stroke-width="1.5" stroke-linecap="round" stroke-linejoin="round"/>
<path d="M8.81623 15.3094C9.03841 15.3094 9.21852 15.1283 9.21852 14.9048C9.21852 14.6813 9.03841 14.5001 8.81623 14.5001C8.59405 14.5001 8.41394 14.6813 8.41394 14.9048C8.41394 15.1283 8.59405 15.3094 8.81623 15.3094Z" stroke="#424B5A" stroke-width="1.5" stroke-linecap="round" stroke-linejoin="round"/>
</g>
<defs>
<clipPath id="clip0_4_264">
<rect width="37.5263" height="31" fill="white"/>
</clipPath>
</defs>
</svg>
