<svg width="31" height="31" viewBox="0 0 31 31" fill="none" xmlns="http://www.w3.org/2000/svg">
<g clip-path="url(#clip0_126_1155)">
<path d="M26.3242 11.0696L24.7354 13.4592C25.5016 14.9873 25.8767 16.6816 25.8271 18.3904C25.7775 20.0991 25.3048 21.7689 24.4513 23.25H6.54877C5.43944 21.3255 4.97977 19.0949 5.23791 16.8886C5.49604 14.6824 6.45824 12.6181 7.98185 11.0017C9.50546 9.38528 11.5094 8.30288 13.6965 7.91493C15.8837 7.52699 18.1376 7.85415 20.1242 8.84791L22.5138 7.25916C20.0809 5.69911 17.1951 5.00004 14.318 5.27379C11.4409 5.54753 8.73872 6.77827 6.6437 8.76913C4.54868 10.76 3.18186 13.396 2.76188 16.2554C2.34191 19.1148 2.89303 22.0325 4.3271 24.5417C4.55251 24.9321 4.87618 25.2568 5.26593 25.4834C5.65568 25.7099 6.09794 25.8306 6.54877 25.8333H24.4384C24.8936 25.8351 25.3412 25.7166 25.7358 25.4898C26.1305 25.263 26.4582 24.9359 26.6859 24.5417C27.876 22.4801 28.4732 20.1297 28.4117 17.75C28.3501 15.3704 27.6322 13.054 26.3371 11.0567L26.3242 11.0696Z" fill="#323232"/>
<path d="M13.6788 19.9046C13.9187 20.1448 14.2036 20.3353 14.5172 20.4653C14.8309 20.5953 15.167 20.6623 15.5065 20.6623C15.846 20.6623 16.1822 20.5953 16.4958 20.4653C16.8094 20.3353 17.0943 20.1448 17.3342 19.9046L24.6451 8.93835L13.6788 16.2492C13.4386 16.4891 13.2481 16.774 13.1181 17.0876C12.9881 17.4012 12.9211 17.7374 12.9211 18.0769C12.9211 18.4164 12.9881 18.7525 13.1181 19.0662C13.2481 19.3798 13.4386 19.6647 13.6788 19.9046Z" fill="#323232"/>
</g>
<defs>
<clipPath id="clip0_126_1155">
<rect width="31" height="31" fill="white"/>
</clipPath>
</defs>
</svg>
