<svg width="146" height="42" viewBox="0 0 146 42" fill="none" xmlns="http://www.w3.org/2000/svg">
<g clip-path="url(#clip0_15_756)">
<path d="M67.178 2.9837H17.8229C7.97922 2.9837 0 11.0212 0 21.0004C0 30.9788 7.97922 39.0172 17.8229 39.0172H67.178C77.0209 39.0172 85.0009 30.9796 85.0009 21.0004C85.0001 11.0212 77.0209 2.9837 67.178 2.9837Z" fill="#4EB543"/>
<path d="M66.6872 36.3892C75.3283 36.3892 82.3333 29.4994 82.3333 21.0005C82.3333 12.5015 75.3283 5.61169 66.6872 5.61169C58.046 5.61169 51.041 12.5015 51.041 21.0005C51.041 29.4994 58.046 36.3892 66.6872 36.3892Z" fill="white"/>
<path d="M66.7312 15.2558H64.6478C64.5253 15.2558 64.4487 15.3411 64.4487 15.4778V26.324C64.4487 26.4607 64.5253 26.546 64.6478 26.546H66.7312C66.8536 26.546 66.9303 26.4607 66.9303 26.324V15.4778C66.9303 15.3411 66.8536 15.2558 66.7312 15.2558Z" fill="#AAAEBA"/>
<path d="M72.0517 15.4297C72.0059 15.3099 71.9442 15.2584 71.8218 15.2584H71.8168H69.0946H69.0896C68.9672 15.2584 68.8906 15.3436 68.8906 15.4804V26.3215C68.8906 26.4583 68.9672 26.5435 69.0896 26.5435H69.0946H71.1623H71.1731C71.2955 26.5435 71.3722 26.4583 71.3722 26.3215V21.952C71.3722 21.5915 71.3688 21.2698 71.3622 20.9651V18.6731L71.4246 18.7558L72.6321 21.475H72.6329L72.6337 21.4522L73.464 23.2529C73.7088 23.8168 74.2701 25.1531 74.9579 26.3738C75.0203 26.4853 75.0653 26.5452 75.1877 26.5452H77.9141C78.0365 26.5452 78.1131 26.4599 78.1131 26.3232V15.4804C78.1131 15.3436 78.0365 15.2584 77.9141 15.2584H75.8464C75.724 15.2584 75.6474 15.3436 75.6474 15.4804V16.539V23.1296L75.5849 23.0469L74.3775 20.3277H74.3766" fill="#AAAEBA"/>
<path d="M63.0449 15.2541H55.6761C55.5537 15.2541 55.4771 15.3394 55.4771 15.4761V26.3223C55.4771 26.459 55.5537 26.5443 55.6761 26.5443H57.7596C57.882 26.5443 57.9586 26.459 57.9586 26.3223V22.9303H61.8649C61.9873 22.9303 62.0639 22.8451 62.0639 22.7083V20.6443C62.0639 20.5075 61.9873 20.4121 61.8649 20.4121L57.9586 20.4222V17.6997L62.5086 17.7141C62.616 17.7141 62.6926 17.6161 62.7234 17.4971L63.2139 15.5099C63.2439 15.3562 63.1823 15.2541 63.0449 15.2541Z" fill="#AAAEBA"/>
<path d="M26.2843 26.3666C26.2843 26.5034 26.2077 26.5887 26.0852 26.5887H24.0018C23.8793 26.5887 23.8027 26.5034 23.8027 26.3666V15.4496C23.8027 15.3128 23.8793 15.2275 24.0018 15.2275H26.0852C26.2077 15.2275 26.2843 15.3128 26.2843 15.4496V26.3666Z" fill="white"/>
<path d="M30.9282 21.7484C28.8297 20.8772 28.0636 20.0228 28.0636 18.1606C28.0636 15.9226 29.58 15.0725 32.0007 15.0725C32.8892 15.0725 33.7161 15.243 34.4514 15.5166L35.4624 15.8922C35.6006 15.9437 35.6306 16.029 35.6006 16.1657L34.9727 17.665C34.9269 17.8018 34.8503 17.8533 34.7279 17.8018L33.8244 17.4945C33.2115 17.2894 32.6294 17.1357 32.0015 17.1357C31.1438 17.1357 30.5618 17.546 30.5618 18.1614C30.5618 18.7591 31.0364 19.0326 31.9099 19.3914L33.1965 19.9207C35.3258 20.8096 36.0919 21.6977 36.0919 23.56C36.0919 25.901 34.6671 26.941 32.0623 26.941C31.143 26.941 30.3161 26.8388 29.0445 26.3771L28.0336 26.0183C27.8953 25.9668 27.8654 25.8815 27.8953 25.7448L28.5082 24.0555C28.554 23.9188 28.6307 23.8673 28.7531 23.9188L29.8256 24.2776C30.7291 24.5849 31.4036 24.6878 32.0623 24.6878C32.8892 24.6878 33.5946 24.4658 33.5946 23.56C33.5946 23.0476 33.0583 22.6542 32.2156 22.2954L30.9282 21.7484Z" fill="white"/>
<path d="M46.6073 26.3235C46.6073 26.4603 46.5307 26.5455 46.4083 26.5455H44.3398C44.2174 26.5455 44.1407 26.4603 44.1407 26.3235V21.9371H40.1578V26.3235C40.1578 26.4603 40.0812 26.5455 39.9588 26.5455H37.8753C37.7529 26.5455 37.6763 26.4603 37.6763 26.3235V15.4824C37.6763 15.3456 37.7529 15.2604 37.8753 15.2604H39.9588C40.0812 15.2604 40.1578 15.3456 40.1578 15.4824V19.5278H44.1407V15.4824C44.1407 15.3456 44.2174 15.2604 44.3398 15.2604H46.4083C46.5307 15.2604 46.6073 15.3456 46.6073 15.4824V26.3235Z" fill="white"/>
<path d="M22.1656 15.257H20.0513C19.9289 15.257 19.8523 15.3254 19.8215 15.4453L18.7964 19.6468C18.7156 20.0064 18.639 20.3973 18.5674 20.7974L18.0577 23.1662L17.5423 20.9215C17.4565 20.4758 17.3632 20.0394 17.2642 19.6443L16.9777 18.4641C16.7071 17.3042 16.4806 16.6069 16.2849 15.4622C16.2699 15.3254 16.1933 15.257 16.07 15.257H16.0001H13.2654H13.1954C13.073 15.257 12.9964 15.3254 12.9806 15.4622C12.7841 16.6069 12.5584 17.3042 12.2878 18.4641L12.0013 19.6443C11.9022 20.0402 11.8089 20.4767 11.7232 20.9215L11.2077 23.1662L10.6981 20.7974C10.6265 20.3973 10.549 20.0056 10.4691 19.6468L9.444 15.4453C9.41319 15.3254 9.33657 15.257 9.21416 15.257H7.09986C6.96163 15.257 6.88502 15.3592 6.93165 15.4959L8.81612 23.2827C9.09175 24.4612 9.32158 25.1754 9.52061 26.337C9.5356 26.4738 9.61221 26.5422 9.73545 26.5422H12.5392C12.5401 26.5422 12.5409 26.5413 12.5426 26.5413H12.6758C12.7982 26.5413 12.8748 26.4729 12.9057 26.3531L13.9307 22.1515C14.0115 21.7919 14.0881 21.401 14.1597 21.0009L14.6336 18.8009L15.1074 21.0009C15.179 21.401 15.2564 21.7927 15.3364 22.1515L16.3615 26.3531C16.3923 26.4729 16.4689 26.5413 16.5913 26.5413H16.7245L16.7279 26.5422H19.5317C19.6541 26.5422 19.7307 26.4738 19.7465 26.337C19.9455 25.1754 20.1754 24.4621 20.451 23.2827L22.3355 15.4959C22.3796 15.36 22.303 15.257 22.1656 15.257Z" fill="white"/>
</g>
<path d="M96.4563 28V14.1818H101.746C102.745 14.1818 103.575 14.3393 104.236 14.6541C104.902 14.9645 105.399 15.3896 105.727 15.9293C106.06 16.4691 106.226 17.0808 106.226 17.7646C106.226 18.3268 106.118 18.8081 105.902 19.2085C105.686 19.6043 105.396 19.9259 105.032 20.1733C104.668 20.4207 104.261 20.5984 103.811 20.7063V20.8413C104.301 20.8683 104.771 21.0189 105.221 21.2933C105.675 21.5632 106.046 21.9455 106.334 22.4403C106.622 22.9351 106.766 23.5334 106.766 24.2351C106.766 24.9503 106.593 25.5935 106.246 26.1648C105.9 26.7315 105.378 27.1791 104.681 27.5075C103.984 27.8358 103.107 28 102.05 28H96.4563ZM98.9595 25.9084H101.652C102.56 25.9084 103.215 25.7352 103.615 25.3888C104.02 25.038 104.222 24.5882 104.222 24.0394C104.222 23.6301 104.121 23.2612 103.919 22.9329C103.716 22.6 103.428 22.3391 103.055 22.1502C102.682 21.9568 102.236 21.8601 101.719 21.8601H98.9595V25.9084ZM98.9595 20.0586H101.436C101.868 20.0586 102.257 19.9799 102.603 19.8224C102.949 19.6605 103.221 19.4334 103.419 19.141C103.622 18.8441 103.723 18.4933 103.723 18.0884C103.723 17.5531 103.534 17.1123 103.156 16.766C102.783 16.4196 102.227 16.2464 101.49 16.2464H98.9595V20.0586ZM108.959 28V14.1818H111.462V25.9016H117.548V28H108.959ZM131.545 21.0909C131.545 22.5798 131.266 23.855 130.708 24.9165C130.155 25.9736 129.399 26.7833 128.441 27.3455C127.488 27.9078 126.406 28.1889 125.196 28.1889C123.986 28.1889 122.902 27.9078 121.944 27.3455C120.99 26.7788 120.234 25.9669 119.677 24.9098C119.123 23.8482 118.847 22.5753 118.847 21.0909C118.847 19.602 119.123 18.3291 119.677 17.272C120.234 16.2105 120.99 15.3986 121.944 14.8363C122.902 14.274 123.986 13.9929 125.196 13.9929C126.406 13.9929 127.488 14.274 128.441 14.8363C129.399 15.3986 130.155 16.2105 130.708 17.272C131.266 18.3291 131.545 19.602 131.545 21.0909ZM129.028 21.0909C129.028 20.0429 128.864 19.159 128.536 18.4393C128.212 17.7151 127.762 17.1686 127.186 16.7997C126.611 16.4264 125.947 16.2397 125.196 16.2397C124.445 16.2397 123.781 16.4264 123.205 16.7997C122.63 17.1686 122.178 17.7151 121.849 18.4393C121.525 19.159 121.364 20.0429 121.364 21.0909C121.364 22.139 121.525 23.0251 121.849 23.7493C122.178 24.469 122.63 25.0155 123.205 25.3888C123.781 25.7577 124.445 25.9421 125.196 25.9421C125.947 25.9421 126.611 25.7577 127.186 25.3888C127.762 25.0155 128.212 24.469 128.536 23.7493C128.864 23.0251 129.028 22.139 129.028 21.0909ZM143.184 18.5945C143.071 18.2301 142.916 17.904 142.718 17.6161C142.525 17.3237 142.291 17.0741 142.017 16.8672C141.747 16.6603 141.436 16.5051 141.085 16.4016C140.735 16.2937 140.352 16.2397 139.938 16.2397C139.196 16.2397 138.535 16.4264 137.955 16.7997C137.375 17.1731 136.918 17.7218 136.585 18.446C136.257 19.1657 136.093 20.0429 136.093 21.0774C136.093 22.121 136.257 23.0049 136.585 23.729C136.913 24.4532 137.37 25.0043 137.955 25.3821C138.54 25.7554 139.219 25.9421 139.992 25.9421C140.694 25.9421 141.301 25.8072 141.814 25.5373C142.331 25.2674 142.73 24.8851 143.008 24.3903C143.287 23.891 143.427 23.3062 143.427 22.636L143.994 22.7237H140.242V20.767H145.849V22.4268C145.849 23.6098 145.597 24.6332 145.093 25.4968C144.59 26.3604 143.897 27.0262 143.015 27.494C142.134 27.9573 141.121 28.1889 139.979 28.1889C138.706 28.1889 137.588 27.9033 136.626 27.332C135.668 26.7563 134.919 25.9399 134.379 24.8828C133.844 23.8213 133.576 22.5618 133.576 21.1044C133.576 19.9889 133.733 18.9925 134.048 18.1154C134.368 17.2383 134.813 16.4938 135.384 15.8821C135.955 15.2659 136.626 14.7981 137.395 14.4787C138.164 14.1548 139.001 13.9929 139.905 13.9929C140.669 13.9929 141.382 14.1053 142.044 14.3303C142.705 14.5507 143.292 14.8655 143.805 15.2749C144.322 15.6842 144.747 16.17 145.08 16.7322C145.413 17.2945 145.631 17.9152 145.734 18.5945H143.184Z" fill="#27364B"/>
<defs>
<clipPath id="clip0_15_756">
<rect width="85" height="36.0326" fill="white" transform="translate(0 2.9837)"/>
</clipPath>
</defs>
</svg>
